<?xml version="1.0" encoding="UTF-8" standalone="no"?>
<!-- Uploaded to: SVG Repo, www.svgrepo.com, Generator: SVG Repo Mixer Tools -->

<svg
   fill="#51a2da"
   height="800"
   width="3400"
   version="1.1"
   id="Layer_1"
   viewBox="0 0 2176 512"
   xml:space="preserve"
   sodipodi:docname="tetrawhite.svg"
   inkscape:version="1.4.3 (0d15f75042, 2025-12-25)"
   xmlns:inkscape="http://www.inkscape.org/namespaces/inkscape"
   xmlns:sodipodi="http://sodipodi.sourceforge.net/DTD/sodipodi-0.dtd"
   xmlns="http://www.w3.org/2000/svg"
   xmlns:svg="http://www.w3.org/2000/svg"><defs
   id="defs2"><rect
     x="908.44096"
     y="470.37852"
     width="2281.866"
     height="293.18148"
     id="rect1" /><rect
     x="837.11401"
     y="65.513275"
     width="2520.1215"
     height="694.43433"
     id="rect2" /></defs><sodipodi:namedview
   id="namedview2"
   pagecolor="#ffffff"
   bordercolor="#000000"
   borderopacity="0.25"
   inkscape:showpageshadow="2"
   inkscape:pageopacity="0.0"
   inkscape:pagecheckerboard="0"
   inkscape:deskcolor="#d1d1d1"
   showgrid="false"
   showguides="true"
   inkscape:zoom="0.36117414"
   inkscape:cx="1713.8547"
   inkscape:cy="329.48095"
   inkscape:window-width="1920"
   inkscape:window-height="1011"
   inkscape:window-x="0"
   inkscape:window-y="0"
   inkscape:window-maximized="1"
   inkscape:current-layer="Layer_1" />
<g
   id="g2">
	<g
   id="g1">
		<path
   d="m 443.455,290.286 h 0.002 0.001 l 63.937,-36.914 -16.696,-28.917 -63.937,36.914 -68.686,-39.656 V 142.402 L 422.013,105.488 405.317,76.571 341.38,113.485 272.694,73.828 V 0 h -33.391 v 73.829 l -68.686,39.656 -63.937,-36.915 -16.696,28.917 63.938,36.915 v 79.311 L 85.237,261.369 21.299,224.454 4.604,253.371 68.542,290.285 v 79.311 l -63.938,36.916 16.695,28.917 63.803,-36.837 68.819,39.595 V 512 h 33.391 v -73.829 l 68.551,-39.579 68.819,39.595 V 512 h 33.391 v -73.829 l 68.686,-39.656 63.937,36.915 16.696,-28.917 -63.937,-36.915 z m -204.151,79.312 v 0 l -68.701,39.663 -68.671,-39.51 v -79.466 l 68.551,-39.578 68.821,39.595 z M 187.313,221.867 v -79.466 l 68.686,-39.655 68.686,39.656 v 79.311 l -68.7,39.664 z m 154.053,187.396 -68.671,-39.511 v -79.465 l 68.686,-39.656 63.937,36.914 4.748,2.741 v 79.311 h 0.001 z"
   id="path1" />
	</g>
</g>
<text
   xml:space="preserve"
   transform="matrix(0.64,0,0,0.64,34.470487,-39.066552)"
   id="text2"
   style="font-size:466.667px;writing-mode:lr-tb;direction:ltr;white-space:pre;shape-inside:url(#rect2);display:inline;fill:#000000"><tspan
     x="837.11328"
     y="485.86603"
     id="tspan4"><tspan
       style="font-family:'Liberation Sans';-inkscape-font-specification:'Liberation Sans';fill:#ffffff"
       id="tspan2">tetrataenite</tspan></tspan></text><text
   xml:space="preserve"
   transform="matrix(0.64,0,0,0.64,0,-12.403989)"
   id="text1"
   style="font-style:normal;font-variant:normal;font-weight:normal;font-stretch:normal;font-size:240px;font-family:'Noto Sans CJK JP';-inkscape-font-specification:'Noto Sans CJK JP';text-align:center;writing-mode:lr-tb;direction:ltr;white-space:pre;shape-inside:url(#rect1);display:inline;fill:#000000"
   x="1140.933"
   y="0"><tspan
     x="1089.374"
     y="711.57891"
     id="tspan6"><tspan
       style="fill:#ffffff"
       id="tspan5">テトラテーナイト
</tspan></tspan></text></svg>
